<?xml version="1.0" encoding="utf-8"?>
<!-- Generator: Adobe Illustrator 15.0.0, SVG Export Plug-In . SVG Version: 6.00 Build 0)  -->
<!DOCTYPE svg PUBLIC "-//W3C//DTD SVG 1.1//EN" "http://www.w3.org/Graphics/SVG/1.1/DTD/svg11.dtd">
<svg version="1.1" id="Layer_1" xmlns="http://www.w3.org/2000/svg" xmlns:xlink="http://www.w3.org/1999/xlink" x="0px" y="0px"
	 width="428.649px" height="465.457px" viewBox="0 0 428.649 465.457" enable-background="new 0 0 428.649 465.457"
	 xml:space="preserve">
<g>
	<rect x="0.091" y="303.203" fill="#FFFFFF" width="428.468" height="161.836"/>
	<path fill="#1775C9" d="M108.176,157.441c-11.169-7.891-24.8-12.526-39.515-12.526c-37.87,0-68.57,30.699-68.57,68.569
		s30.7,68.57,68.57,68.57c14.715,0,28.346-4.637,39.515-12.526v12.526h29.055v-68.57v-68.569h-29.055V157.441z M68.661,253
		c-21.824,0-39.516-17.691-39.516-39.516c0-21.823,17.691-39.514,39.516-39.514s39.515,17.69,39.515,39.514
		C108.176,235.309,90.485,253,68.661,253"/>
	<path fill="#1775C9" d="M399.502,96.95L282.895,36.163V9.803h-29.056v11.215l-30.041-15.66l-9.474-4.939l-9.475,4.939
		L0.091,112.096v32.767L214.324,33.186l39.515,20.598v103.658c-11.169-7.891-24.8-12.526-39.515-12.526
		c-37.87,0-68.57,30.699-68.57,68.569s30.7,68.57,68.57,68.57c14.715,0,28.346-4.637,39.515-12.526v12.526h29.056v-68.57V68.93
		l30.685,15.995l6.894,3.595l79.029,41.196v25.759v1.967v56.043c0,21.824-17.691,39.516-39.515,39.516s-39.515-17.691-39.515-39.516
		v-56.043v-43.164l-29.056-15.146v114.354c0,37.87,30.7,68.57,68.57,68.57s68.57-30.7,68.57-68.57v-42.863v-25.759v-32.767
		L399.502,96.95z M214.324,253c-21.824,0-39.516-17.691-39.516-39.516c0-21.823,17.691-39.514,39.516-39.514
		c21.823,0,39.515,17.69,39.515,39.514C253.839,235.309,236.147,253,214.324,253"/>
	<path fill="#B53C00" d="M45.895,343.732c0.346,0,0.715-0.019,1.109-0.059c0.927-0.059,1.78-0.275,2.559-0.649
		c0.779-0.373,1.445-0.871,1.998-1.49c0.551-0.621,0.98-1.33,1.286-2.126c0.305-0.797,0.459-1.639,0.459-2.523
		c0-0.847-0.159-1.668-0.474-2.465c-0.316-0.797-0.761-1.511-1.331-2.141c-0.572-0.63-1.253-1.142-2.042-1.534
		c-0.788-0.395-1.646-0.621-2.573-0.68c-0.691-0.019-1.366-0.035-2.027-0.045c-0.66-0.01-1.345-0.015-2.055-0.015h-5.828v13.727
		h7.811H45.895z"/>
	<path fill="#B53C00" d="M297.985,334.419c-0.315-0.796-0.76-1.51-1.33-2.14c-0.572-0.631-1.254-1.142-2.043-1.534
		c-0.788-0.395-1.647-0.621-2.572-0.681c-0.691-0.018-1.367-0.034-2.026-0.044c-0.661-0.01-1.347-0.015-2.057-0.015h-5.829v13.727
		h7.811h1.109c0.345,0,0.715-0.019,1.109-0.059c0.927-0.059,1.78-0.276,2.558-0.65c0.781-0.372,1.446-0.87,1.999-1.489
		c0.552-0.621,0.98-1.33,1.286-2.126c0.306-0.797,0.459-1.639,0.459-2.523C298.459,336.038,298.3,335.217,297.985,334.419"/>
	<path fill="#B53C00" d="M385.203,398.561c-0.784-0.862-1.718-1.564-2.798-2.104c-1.081-0.54-2.256-0.851-3.525-0.931
		c-0.948-0.025-1.873-0.047-2.777-0.061c-0.905-0.015-1.845-0.021-2.817-0.021h-7.986v18.809h10.702h1.521
		c0.472,0,0.979-0.025,1.52-0.08c1.27-0.081,2.438-0.378,3.506-0.891c1.068-0.511,1.98-1.193,2.737-2.042
		c0.756-0.851,1.344-1.821,1.763-2.912c0.418-1.093,0.629-2.247,0.629-3.459c0-1.159-0.217-2.285-0.648-3.378
		C386.595,400.401,385.985,399.423,385.203,398.561"/>
	<path fill="#B53C00" d="M176.147,354.678c1.252,1.282,2.731,2.298,4.438,3.048s3.554,1.124,5.548,1.124
		c1.972,0,3.81-0.374,5.517-1.124c1.705-0.75,3.189-1.766,4.451-3.048c1.262-1.28,2.254-2.789,2.973-4.526
		c0.721-1.735,1.08-3.598,1.08-5.59c0-1.972-0.359-3.826-1.08-5.562c-0.719-1.735-1.711-3.25-2.973-4.542
		c-1.262-1.291-2.746-2.312-4.451-3.063c-1.707-0.748-3.545-1.124-5.517-1.124c-1.994,0-3.842,0.376-5.548,1.124
		c-1.706,0.751-3.186,1.771-4.438,3.063c-1.253,1.292-2.238,2.807-2.958,4.542s-1.081,3.59-1.081,5.562
		c0,1.992,0.361,3.854,1.081,5.59C173.909,351.889,174.895,353.397,176.147,354.678"/>
	<path fill="#B53C00" d="M0.091,465.039h428.468V303.203H0.091V465.039z M164.359,338.614c0.531-1.932,1.291-3.736,2.276-5.413
		c0.986-1.676,2.165-3.205,3.536-4.586c1.371-1.38,2.895-2.559,4.57-3.535c1.677-0.975,3.477-1.734,5.397-2.276
		c1.924-0.543,3.931-0.813,6.021-0.813c2.071,0,4.068,0.271,5.991,0.813c1.922,0.542,3.722,1.302,5.398,2.276
		c1.676,0.977,3.204,2.155,4.585,3.535c1.381,1.381,2.56,2.91,3.535,4.586c0.978,1.677,1.735,3.481,2.277,5.413
		c0.544,1.933,0.814,3.946,0.814,6.036s-0.271,4.092-0.814,6.005c-0.542,1.913-1.3,3.707-2.277,5.384
		c-0.976,1.676-2.154,3.201-3.535,4.57c-1.381,1.371-2.909,2.544-4.585,3.521c-1.677,0.978-3.477,1.731-5.398,2.265
		c-1.923,0.531-3.931,0.798-6.02,0.798c-2.092,0-4.098-0.267-6.021-0.798c-1.924-0.533-3.724-1.293-5.4-2.278
		c-1.676-0.987-3.2-2.166-4.57-3.535c-1.371-1.371-2.545-2.89-3.52-4.557c-0.977-1.666-1.731-3.461-2.263-5.384
		c-0.534-1.923-0.8-3.93-0.8-6.021C163.56,342.549,163.825,340.547,164.359,338.614 M75.433,324.03c0-0.946,0.435-1.419,1.303-1.419
		h28.518c0.513,0,0.877,0.144,1.094,0.43c0.219,0.287,0.326,0.648,0.326,1.084v5.225c0,0.356-0.123,0.674-0.37,0.95
		c-0.247,0.278-0.617,0.416-1.108,0.416H84.16v8.964h16.212c0.394-0.039,0.71,0.044,0.947,0.251
		c0.235,0.208,0.354,0.558,0.354,1.051v5.354c0,0.356-0.1,0.672-0.297,0.947c-0.197,0.276-0.513,0.414-0.946,0.414H84.16v10.739
		h21.803c0.552,0,0.917,0.119,1.094,0.356c0.179,0.237,0.268,0.604,0.268,1.098v5.403c0,0.832-0.436,1.248-1.303,1.248H76.735
		c-0.355,0-0.661-0.099-0.917-0.295c-0.258-0.198-0.386-0.514-0.386-0.947V324.03z M28.366,324c0-0.926,0.435-1.389,1.303-1.389
		h18.104c1.991,0,3.855,0.374,5.591,1.123c1.735,0.75,3.25,1.766,4.542,3.047c1.291,1.283,2.307,2.79,3.046,4.525
		c0.741,1.737,1.109,3.58,1.109,5.533c0,1.361-0.187,2.662-0.562,3.905c-0.375,1.242-0.898,2.396-1.568,3.461
		c-0.671,1.066-1.469,2.026-2.396,2.884c-0.926,0.859-1.952,1.583-3.076,2.174l7.692,15.177c0.039,0.197,0.107,0.396,0.207,0.592
		c0.098,0.199,0.147,0.405,0.147,0.621c0,0.593-0.345,0.888-1.036,0.888h-6.862c-0.711,0-1.184-0.364-1.421-1.094l-7.158-14.201
		c-0.315,0-0.656,0.006-1.021,0.016c-0.366,0.011-0.869,0.015-1.51,0.015h-2.514h-4.009v13.993c0,0.847-0.454,1.271-1.361,1.271
		h-5.945c-0.395,0-0.711-0.103-0.948-0.311c-0.235-0.207-0.354-0.527-0.354-0.961V324z M77.598,440.358
		c-0.229,0.245-0.493,0.474-0.79,0.689c-2.541,1.702-5.276,3.021-8.21,3.952c-2.931,0.934-6.019,1.399-9.261,1.399
		c-2.865,0-5.615-0.365-8.25-1.095c-2.634-0.729-5.101-1.771-7.396-3.12c-2.299-1.353-4.387-2.968-6.264-4.845
		c-1.879-1.878-3.493-3.959-4.844-6.243c-1.352-2.282-2.392-4.742-3.122-7.377c-0.729-2.635-1.095-5.385-1.095-8.249
		s0.366-5.614,1.095-8.25c0.73-2.635,1.771-5.107,3.122-7.418c1.351-2.31,2.965-4.412,4.844-6.303
		c1.877-1.893,3.965-3.508,6.264-4.844c2.296-1.338,4.763-2.378,7.396-3.123c2.635-0.742,5.385-1.113,8.25-1.113
		c3.215,0,6.27,0.453,9.16,1.357c2.892,0.906,5.607,2.209,8.148,3.912c0.324,0.189,0.594,0.419,0.811,0.688
		c0.217,0.271,0.325,0.595,0.325,0.973c0,0.299-0.082,0.609-0.244,0.934l-3.933,6.687c-0.46,0.623-0.946,0.934-1.459,0.934
		c-0.161,0-0.351-0.033-0.567-0.102c-0.216-0.067-0.434-0.167-0.648-0.303c-1.703-1.217-3.526-2.162-5.473-2.838
		c-1.945-0.676-4.012-1.014-6.202-1.014c-2.756,0-5.283,0.521-7.58,1.56c-2.297,1.042-4.283,2.453-5.958,4.237
		c-1.677,1.783-2.979,3.877-3.912,6.283c-0.932,2.404-1.398,4.984-1.398,7.742c0,2.729,0.467,5.29,1.398,7.682
		c0.934,2.392,2.235,4.479,3.912,6.263c1.675,1.782,3.661,3.19,5.958,4.215c2.297,1.028,4.824,1.541,7.58,1.541
		c2.19,0,4.277-0.338,6.263-1.015c1.987-0.674,3.816-1.621,5.492-2.837c0.217-0.161,0.44-0.27,0.67-0.324
		c0.229-0.054,0.425-0.095,0.587-0.122c0.459,0,0.934,0.299,1.419,0.892l4.014,6.771c0.162,0.324,0.244,0.623,0.244,0.892
		C77.943,439.807,77.827,440.117,77.598,440.358 M140.57,443.798c0,1.141-0.596,1.709-1.784,1.709h-40.13
		c-0.486,0-0.906-0.135-1.257-0.403c-0.352-0.272-0.527-0.705-0.527-1.298v-56.549c0-1.297,0.594-1.944,1.784-1.944h39.076
		c0.702,0,1.201,0.195,1.5,0.589c0.298,0.393,0.445,0.888,0.445,1.485v7.159c0,0.489-0.169,0.924-0.507,1.303
		c-0.338,0.382-0.845,0.569-1.52,0.569H108.83V408.7h22.214c0.541-0.053,0.973,0.062,1.297,0.344
		c0.324,0.285,0.486,0.765,0.486,1.44v7.336c0,0.487-0.135,0.92-0.405,1.297c-0.27,0.38-0.703,0.568-1.297,0.568H108.83V434.4
		h29.875c0.757,0,1.257,0.164,1.499,0.489c0.244,0.324,0.366,0.825,0.366,1.503V443.798z M150.633,358.819
		c-0.868,1.735-2.066,3.22-3.594,4.453c-1.529,1.232-3.323,2.179-5.384,2.84c-2.062,0.66-4.275,0.992-6.643,0.992
		c-1.519,0-3.026-0.179-4.525-0.533c-1.499-0.355-2.939-0.859-4.319-1.508c-1.381-0.652-2.688-1.437-3.92-2.353
		c-1.233-0.918-2.332-1.948-3.298-3.093v0.03l-0.061-0.119c-0.433-0.491-0.65-0.946-0.65-1.36c0-0.217,0.06-0.424,0.178-0.621
		c0.118-0.196,0.296-0.415,0.533-0.65l0.976-0.977c0.296-0.257,0.611-0.542,0.946-0.857c0.336-0.315,0.671-0.603,1.006-0.859
		c0.335-0.255,0.646-0.473,0.932-0.65c0.286-0.177,0.518-0.266,0.696-0.266c0.275,0,0.532,0.089,0.77,0.266
		c0.235,0.178,0.433,0.346,0.591,0.503l0.119,0.119h-0.03c0.689,0.649,1.465,1.272,2.322,1.863c0.857,0.592,1.739,1.12,2.647,1.583
		c0.907,0.463,1.81,0.827,2.707,1.095c0.897,0.267,1.74,0.398,2.529,0.398c1.085,0,2.101-0.137,3.047-0.413
		c0.947-0.277,1.765-0.666,2.455-1.169c0.689-0.503,1.232-1.11,1.628-1.82c0.394-0.71,0.591-1.498,0.591-2.366
		c0-0.866-0.257-1.611-0.768-2.232c-0.515-0.623-1.186-1.165-2.014-1.628c-0.827-0.463-1.759-0.862-2.795-1.197
		c-1.035-0.336-2.076-0.651-3.121-0.947c-2.406-0.729-4.511-1.519-6.315-2.367c-1.804-0.848-3.31-1.799-4.511-2.854
		c-1.203-1.055-2.106-2.238-2.707-3.549c-0.603-1.313-0.902-2.787-0.902-4.423c0-1.834,0.369-3.507,1.109-5.016
		c0.738-1.509,1.79-2.8,3.149-3.875c1.361-1.074,2.998-1.912,4.911-2.514s4.053-0.901,6.42-0.901c1.794,0,3.619,0.28,5.472,0.842
		c1.854,0.562,3.57,1.337,5.148,2.322c0.473,0.296,0.957,0.631,1.45,1.005c0.492,0.375,0.946,0.755,1.36,1.14
		c0.413,0.384,0.755,0.76,1.021,1.124c0.266,0.365,0.4,0.676,0.4,0.932c0,0.237-0.061,0.478-0.179,0.725
		c-0.119,0.247-0.267,0.469-0.443,0.665l-0.888,0.947v-0.029c-0.297,0.315-0.602,0.642-0.918,0.977
		c-0.314,0.336-0.631,0.636-0.945,0.903c-0.316,0.265-0.602,0.486-0.858,0.666c-0.257,0.177-0.473,0.264-0.651,0.264
		c-0.256,0-0.492-0.063-0.71-0.192c-0.217-0.127-0.464-0.299-0.738-0.518l-0.061-0.028c-0.375-0.374-0.856-0.789-1.449-1.243
		c-0.591-0.453-1.253-0.877-1.981-1.272c-0.73-0.395-1.515-0.729-2.353-1.005c-0.839-0.275-1.691-0.415-2.559-0.415
		c-1.105,0-2.081,0.124-2.928,0.371c-0.85,0.246-1.56,0.582-2.131,1.005c-0.572,0.424-1.006,0.922-1.303,1.495
		c-0.295,0.571-0.442,1.182-0.442,1.834c0,0.709,0.222,1.33,0.666,1.863c0.442,0.532,1.045,1.006,1.804,1.42
		c0.759,0.415,1.632,0.793,2.618,1.139c0.985,0.346,2.021,0.686,3.105,1.021c1.243,0.374,2.476,0.778,3.698,1.212
		c1.223,0.435,2.392,0.922,3.506,1.464c1.114,0.545,2.153,1.145,3.122,1.806c0.964,0.661,1.798,1.42,2.499,2.277
		c0.7,0.857,1.252,1.814,1.656,2.87c0.405,1.056,0.606,2.243,0.606,3.565C151.935,355.143,151.501,357.084,150.633,358.819
		 M210.574,443.845c0,1.108-0.632,1.662-1.902,1.662h-8.801c-0.593,0-1.147-0.365-1.658-1.094
		c-4.76-6.892-9.494-13.776-14.21-20.654c-4.715-6.876-9.438-13.775-14.166-20.692v40.656c0,0.596-0.143,1.042-0.427,1.34
		c-0.283,0.297-0.764,0.444-1.438,0.444h-7.783c-0.621,0-1.073-0.155-1.357-0.466c-0.284-0.31-0.425-0.736-0.425-1.277v-56.629
		c0-0.513,0.154-0.944,0.465-1.297c0.311-0.352,0.75-0.525,1.317-0.525h9.323c0.378,0,0.736,0.088,1.074,0.263
		c0.337,0.177,0.642,0.452,0.912,0.831c4.621,6.593,9.202,13.141,13.742,19.64c4.54,6.498,9.121,13.046,13.743,19.639v-38.831
		c0.078-0.488,0.282-0.866,0.605-1.137c0.326-0.27,0.715-0.404,1.175-0.404h7.826c0.538,0,1.006,0.16,1.399,0.484
		c0.389,0.324,0.585,0.759,0.585,1.299V443.845z M223.493,356.838c-0.985-2.268-1.477-4.87-1.477-7.811v-25.115
		c0-0.315,0.113-0.611,0.34-0.887c0.227-0.276,0.518-0.414,0.873-0.414h6.034c0.296,0,0.602,0.127,0.916,0.384
		c0.316,0.257,0.475,0.562,0.475,0.917v24.791c0,1.656,0.236,3.146,0.71,4.466c0.473,1.322,1.139,2.441,1.997,3.359
		c0.857,0.916,1.884,1.617,3.077,2.1c1.192,0.482,2.518,0.724,3.978,0.724c1.539,0,2.919-0.255,4.143-0.769
		c1.223-0.512,2.253-1.237,3.092-2.174c0.837-0.937,1.479-2.062,1.923-3.373c0.443-1.312,0.666-2.756,0.666-4.333v-24.791
		c0-0.355,0.127-0.66,0.383-0.917c0.255-0.257,0.579-0.384,0.972-0.384h5.72c0.413,0,0.762,0.127,1.047,0.384
		s0.428,0.562,0.428,0.917v25.115c0,3.058-0.492,5.725-1.479,8.003c-0.984,2.278-2.314,4.176-3.989,5.694s-3.626,2.653-5.853,3.402
		c-2.228,0.75-4.582,1.124-7.064,1.124s-4.839-0.397-7.064-1.197c-2.228-0.799-4.178-1.968-5.854-3.507
		C225.81,361.01,224.479,359.106,223.493,356.838 M274.42,394.189c0,0.541-0.169,1.013-0.507,1.417
		c-0.339,0.407-0.832,0.609-1.48,0.609H257.03v47.427c0,0.487-0.169,0.92-0.507,1.297c-0.338,0.379-0.805,0.567-1.399,0.567h-7.985
		c-0.486,0-0.927-0.175-1.317-0.525c-0.393-0.353-0.588-0.799-0.588-1.339v-47.427H229.79c-0.541,0-0.987-0.169-1.339-0.507
		s-0.526-0.845-0.526-1.52v-7.094c0-0.54,0.175-0.975,0.526-1.299s0.798-0.484,1.339-0.484h42.643c0.487,0,0.926,0.148,1.318,0.445
		c0.392,0.297,0.613,0.743,0.669,1.338V394.189z M290.161,351.262c-0.366,0.011-0.869,0.015-1.509,0.015h-2.517h-4.008v13.993
		c0,0.847-0.453,1.271-1.36,1.271h-5.946c-0.395,0-0.71-0.103-0.946-0.311c-0.236-0.207-0.354-0.527-0.354-0.961V324
		c0-0.926,0.434-1.389,1.301-1.389h18.104c1.992,0,3.856,0.374,5.592,1.123c1.735,0.75,3.25,1.766,4.541,3.047
		c1.292,1.283,2.308,2.79,3.047,4.525c0.739,1.737,1.11,3.58,1.11,5.533c0,1.361-0.188,2.662-0.563,3.905
		c-0.375,1.242-0.897,2.396-1.568,3.461c-0.67,1.066-1.469,2.026-2.396,2.884c-0.929,0.859-1.953,1.583-3.077,2.174l7.69,15.177
		c0.04,0.197,0.109,0.396,0.208,0.592c0.1,0.199,0.148,0.405,0.148,0.621c0,0.593-0.346,0.888-1.035,0.888h-6.864
		c-0.71,0-1.184-0.364-1.42-1.094l-7.16-14.201C290.865,351.246,290.525,351.252,290.161,351.262 M335.708,443.798
		c0,1.141-0.594,1.709-1.782,1.709h-40.132c-0.485,0-0.907-0.135-1.256-0.403c-0.352-0.272-0.527-0.705-0.527-1.298v-56.549
		c0-1.297,0.594-1.944,1.783-1.944h39.076c0.703,0,1.203,0.195,1.501,0.589c0.297,0.393,0.446,0.888,0.446,1.485v7.159
		c0,0.489-0.171,0.924-0.507,1.303c-0.338,0.382-0.845,0.569-1.521,0.569h-28.822V408.7h22.215c0.54-0.053,0.973,0.062,1.297,0.344
		c0.323,0.285,0.485,0.765,0.485,1.44v7.336c0,0.487-0.135,0.92-0.404,1.297c-0.27,0.38-0.704,0.568-1.297,0.568h-22.296V434.4
		h29.875c0.757,0,1.258,0.164,1.501,0.489c0.242,0.324,0.364,0.825,0.364,1.503V443.798z M340.999,367.192
		c-2.092,0-4.098-0.267-6.021-0.798c-1.924-0.533-3.723-1.293-5.397-2.278c-1.678-0.987-3.201-2.166-4.571-3.535
		c-1.37-1.371-2.55-2.89-3.536-4.557c-0.985-1.666-1.745-3.461-2.277-5.384s-0.799-3.93-0.799-6.021s0.267-4.098,0.799-6.021
		s1.292-3.728,2.277-5.414c0.986-1.685,2.166-3.22,3.536-4.599c1.37-1.382,2.894-2.561,4.571-3.535
		c1.675-0.978,3.474-1.735,5.397-2.278c1.924-0.542,3.93-0.813,6.021-0.813c2.345,0,4.574,0.331,6.686,0.991
		c2.109,0.66,4.092,1.612,5.946,2.854c0.236,0.138,0.433,0.306,0.59,0.502c0.158,0.198,0.237,0.435,0.237,0.71
		c0,0.218-0.059,0.444-0.177,0.681l-2.869,4.881c-0.336,0.455-0.692,0.682-1.066,0.682c-0.117,0-0.256-0.024-0.414-0.075
		c-0.157-0.049-0.315-0.121-0.473-0.221c-1.242-0.888-2.574-1.577-3.993-2.07c-1.421-0.494-2.93-0.74-4.526-0.74
		c-2.013,0-3.856,0.38-5.532,1.139c-1.677,0.76-3.127,1.789-4.349,3.092c-1.224,1.301-2.174,2.829-2.855,4.585
		c-0.68,1.755-1.02,3.639-1.02,5.65c0,1.992,0.34,3.861,1.02,5.606c0.682,1.745,1.632,3.269,2.855,4.57
		c1.222,1.301,2.672,2.327,4.349,3.076c1.676,0.75,3.52,1.124,5.532,1.124c1.597,0,3.121-0.246,4.57-0.739
		c1.449-0.492,2.786-1.184,4.009-2.07c0.156-0.118,0.32-0.197,0.488-0.237c0.167-0.039,0.311-0.069,0.429-0.089
		c0.335,0,0.68,0.218,1.034,0.65l2.93,4.941c0.119,0.236,0.178,0.454,0.178,0.651c0,0.276-0.085,0.503-0.251,0.679
		c-0.168,0.179-0.361,0.346-0.578,0.504c-1.853,1.242-3.851,2.204-5.99,2.884C345.618,366.854,343.365,367.192,340.999,367.192
		 M398.863,445.507h-9.405c-0.973,0-1.621-0.499-1.946-1.499l-9.81-19.459c-0.432,0-0.898,0.008-1.397,0.021
		c-0.502,0.015-1.19,0.021-2.066,0.021h-3.447h-5.492v19.173c0,1.162-0.622,1.743-1.865,1.743h-8.147
		c-0.54,0-0.973-0.142-1.297-0.426c-0.324-0.283-0.485-0.722-0.485-1.317v-56.548c0-1.27,0.594-1.903,1.782-1.903h24.808
		c2.729,0,5.284,0.512,7.662,1.541c2.378,1.026,4.453,2.419,6.222,4.173c1.771,1.757,3.161,3.824,4.176,6.203
		c1.014,2.378,1.521,4.903,1.521,7.58c0,1.865-0.258,3.647-0.771,5.351c-0.516,1.702-1.23,3.284-2.15,4.742
		c-0.917,1.46-2.012,2.776-3.281,3.953c-1.271,1.176-2.677,2.168-4.217,2.978l10.538,20.795c0.056,0.271,0.149,0.543,0.285,0.812
		c0.136,0.271,0.202,0.555,0.202,0.852C400.281,445.104,399.807,445.507,398.863,445.507 M400.281,365.293
		c0,0.832-0.434,1.248-1.301,1.248h-29.288c-0.354,0-0.661-0.099-0.916-0.295c-0.257-0.198-0.385-0.514-0.385-0.947V324.03
		c0-0.946,0.434-1.419,1.301-1.419h28.519c0.514,0,0.878,0.144,1.096,0.43c0.217,0.287,0.325,0.648,0.325,1.084v5.225
		c0,0.356-0.125,0.674-0.371,0.95c-0.245,0.278-0.615,0.416-1.108,0.416h-21.033v8.964h16.211c0.395-0.039,0.71,0.044,0.947,0.251
		c0.236,0.208,0.354,0.558,0.354,1.051v5.354c0,0.356-0.099,0.672-0.295,0.947c-0.197,0.276-0.514,0.414-0.947,0.414h-16.27v10.739
		h21.802c0.552,0,0.918,0.119,1.096,0.356c0.176,0.237,0.265,0.604,0.265,1.098V365.293z"/>
</g>
</svg>
